<svg width="196" height="196" viewBox="0 0 196 196" fill="none" xmlns="http://www.w3.org/2000/svg">
<rect width="196" height="196" fill="white"/>
<mask id="mask0" mask-type="alpha" maskUnits="userSpaceOnUse" x="18" y="18" width="157" height="157">
<path fill-rule="evenodd" clip-rule="evenodd" d="M96.4002 18C139.699 18 174.8 53.1008 174.8 96.4C174.8 139.699 139.699 174.8 96.4002 174.8C53.101 174.8 18 139.699 18 96.4C18 53.1008 53.101 18 96.4002 18Z" fill="#E95852"/>
</mask>
<g mask="url(#mask0)">
<path fill-rule="evenodd" clip-rule="evenodd" d="M96.4002 18C139.699 18 174.8 53.1008 174.8 96.4C174.8 139.699 139.699 174.8 96.4002 174.8C53.101 174.8 18 139.699 18 96.4C18 53.1008 53.101 18 96.4002 18Z" fill="#E95852"/>
<path fill-rule="evenodd" clip-rule="evenodd" d="M80.267 119.382L80.3119 143.701C89.28 146.406 103.913 144.535 111.567 141.385C139.333 129.961 132.462 88.8968 132.476 54.0189C132.485 29.6394 133.732 -75.7752 132.197 -90.5024L105.537 -90.6621C104.259 -79.2139 105.25 60.7343 105.247 85.0193C105.243 111.638 109.231 120.097 80.267 119.382Z" fill="#FEFEFE"/>
</g>
</svg>
