<svg width="394" height="102" viewBox="0 0 394 102" fill="none" xmlns="http://www.w3.org/2000/svg">
<path fill-rule="evenodd" clip-rule="evenodd" d="M66.431 61.9069C66.5716 61.1274 67.4563 60.2393 67.9122 59.4916C68.4721 58.5727 68.7933 57.9243 69.2811 56.9924C70.1729 55.2892 70.8969 53.4147 71.4639 51.4246C72.6367 47.3108 72.9969 42.1588 72.1631 37.5383C67.2024 10.0611 29.9315 0.922703 12.1133 24.5531C2.94679 36.7102 4.47399 53.5199 14.1201 64.1971C22.1327 73.0637 35.6078 77.5885 48.2007 74.0511C54.9543 72.1542 57.6141 69.6337 58.7031 69.2676C61.6263 73.0566 66.762 78.8614 70.0242 82.902C71.0624 84.1882 71.9326 85.3081 72.8385 86.3392C73.8885 87.5344 74.4757 88.4957 76.0702 89.3685C79.2863 91.1272 82.8249 90.2793 85.206 88.1108C87.3851 86.1254 88.4079 82.1876 86.7036 78.8876C85.865 77.2636 84.9344 76.5997 83.7072 75.6229C81.436 73.8135 67.3003 62.7809 66.431 61.9069V61.9069ZM37.7032 19.7105C40.8532 19.2405 45.4759 20.2928 48.0319 21.1869C51.026 22.2334 53.6587 23.9084 55.6772 25.6174C66.1359 34.471 66.6603 49.857 57.4099 59.1239C47.9646 68.5834 32.2359 69.1669 22.7221 60.657C7.36534 46.922 15.2172 25.0197 32.5026 20.5244C35.2133 19.8193 35.4237 20.0507 37.7032 19.7105V19.7105Z" fill="#060606"/>
<path fill-rule="evenodd" clip-rule="evenodd" d="M46.7422 62.4172C49.0252 62.0357 53.0966 59.3413 54.7501 57.6559C55.2379 57.1598 55.4162 57.2484 55.4233 56.2598L55.3998 37.0364C55.4045 35.6828 55.728 33.1422 54.9603 32.1265L51.5552 32.0864C46.5685 32.1064 46.7458 31.6849 46.7375 34.2077L46.7422 62.4172V62.4172Z" fill="#E64741"/>
<path fill-rule="evenodd" clip-rule="evenodd" d="M23.2714 54.1631C23.2714 56.6446 22.9267 56.8883 23.9247 57.819C24.6216 58.4686 25.381 59.0636 26.2385 59.6718C27.344 60.4561 30.3309 62.2337 31.962 62.4368L31.9597 46.4185C31.9337 39.1902 33.0971 39.735 27.579 39.7633C22.8522 39.7869 23.2716 39.4717 23.2728 42.0997L23.2714 54.1631Z" fill="#E64741"/>
<path fill-rule="evenodd" clip-rule="evenodd" d="M43.4858 63.3737C43.794 60.5048 43.5272 56.1502 43.5296 53.1207C43.5308 52.0494 43.6796 48.7504 43.4989 47.9248C43.2367 46.7319 40.4291 47.2091 39.1948 47.2115C37.7846 47.2139 35.1379 46.7155 34.9264 48.0761C34.7493 49.217 34.9086 51.8321 34.9121 53.1207C34.9204 56.3735 34.715 60.174 34.9371 63.3571C37.0749 64.0008 41.3633 63.9749 43.4858 63.3737V63.3737Z" fill="#E64741"/>
<path fill-rule="evenodd" clip-rule="evenodd" d="M105 49.2671C105 53.9337 105.119 56.4211 106.238 60.9199C107.697 66.7912 110.494 71.8829 114.205 76.5802L115.977 78.589C118.07 80.6783 120.204 82.6932 122.684 84.3409C129.027 88.5586 135.445 90.7357 143.069 91.3652L145.557 91.4561H145.558C148.596 91.4561 151.703 91.0496 154.671 90.4319C156.731 90.0031 158.648 89.3806 160.519 88.633C164.417 87.0751 167.688 85.1299 170.991 82.607C171.705 82.0602 172.442 81.464 173.074 80.8238L176.218 77.6099C177.675 75.7899 178.729 74.6478 180.029 72.569C180.376 72.0151 180.647 71.5296 180.995 70.9579C181.674 69.8394 182.216 68.7542 182.737 67.5447C185.069 62.1246 186.37 56.9889 186.37 50.8141C186.37 45.1188 185.278 39.7638 183.103 34.835C182.828 34.2102 182.404 33.5321 182.245 32.8553C181.937 32.938 181.277 33.4448 180.975 33.6456L173.345 38.6478C172.889 38.9513 172.491 39.2242 172.021 39.4723C173.49 42.5337 174.34 47.2967 174.34 50.7278C174.34 53.6286 173.743 57.1293 172.85 59.8057C171.467 63.9538 169.11 67.7737 166.028 70.8564C164.835 72.0482 163.604 73.1241 162.226 74.0985L158.932 76.1336C156.895 77.2308 154.689 77.9996 152.431 78.5677C150.698 79.0036 149.52 79.0558 147.84 79.305C147.266 79.3901 146.653 79.2967 146.074 79.3475C141.519 79.7431 135.93 77.9606 131.979 75.9043L130.313 74.9063C129.065 74.0677 127.847 73.2244 126.718 72.2299C124.486 70.2622 122.601 67.966 121.072 65.416C120.602 64.6317 120.24 63.929 119.807 63.0727C118.155 59.7939 117.03 55.4547 117.03 51.5878C117.03 47.8461 117.325 45.1601 118.415 41.8884C119.148 39.688 120.092 37.4368 121.394 35.5022C121.72 35.0179 121.984 34.5976 122.322 34.1098C122.492 33.8641 122.629 33.6966 122.799 33.4698C122.98 33.2277 123.119 33.0208 123.324 32.7916C123.71 32.3617 123.986 31.9482 124.397 31.5455C124.657 31.2927 124.726 31.1476 124.955 30.8996C125.159 30.6787 125.342 30.5171 125.557 30.2998C127.785 28.0521 131.021 25.8776 133.872 24.6079C136.794 23.3063 139.867 22.4699 143.143 22.1935C146.624 21.9006 150.268 22.247 153.576 23.2025C155.409 23.7317 156.927 24.3669 158.56 25.1795C159.085 25.4417 159.587 25.8479 160.164 25.9814C160.229 25.7392 160.414 25.5596 160.569 25.3553L163.735 21.1328C164.098 20.6498 167.169 16.7476 167.295 16.2728C166.557 15.8818 165.902 15.4092 165.118 15.0123C162.395 13.6304 160.752 12.8772 157.768 11.8792C154.602 10.8209 150.8 10.0921 147.358 10.0886C146.767 10.0886 146.336 10 145.643 10H145.642C144.437 10 143.352 10.1393 142.119 10.1712C141.782 10.1794 141.332 10.2419 140.953 10.2939C136.578 10.8904 133.193 11.8198 129.194 13.4852C124.932 15.2604 120.495 18.3494 117.266 21.5785C116.654 22.1903 115.964 22.7537 115.434 23.4411L114.279 24.7781C111.152 28.8151 109.319 31.8089 107.442 36.6727C106.023 40.3506 105 45.0801 105 49.2671V49.2671Z" fill="black"/>
<path fill-rule="evenodd" clip-rule="evenodd" d="M126.482 50.4703C126.482 54.2545 127.335 57.3481 128.969 60.1839C129.655 61.3792 130.228 62.2285 131.141 63.2525C131.284 63.4131 131.27 63.4317 131.405 63.5911C131.588 63.8108 131.796 63.9895 132.001 64.1974C133.214 65.4092 134.428 66.3679 135.906 67.2526C136.439 67.5715 136.93 67.8149 137.478 68.0853C142.442 70.5314 148.545 70.457 153.634 68.1716C154.711 67.6885 155.663 67.1629 156.592 66.4885C158.114 65.383 157.975 65.3759 159.146 64.405L160.213 63.2368C160.419 62.9711 160.518 62.8885 160.717 62.6227C161.585 61.4641 162.358 60.3563 162.971 59.0347C164.637 55.4358 165.298 51.1564 164.481 47.0981C164.385 46.6162 164.319 46.2703 164.192 45.8404C164.079 45.4577 163.954 45.0385 163.858 44.6275C161.85 45.6905 159.044 47.5174 156.784 48.7221C156.549 48.8485 156.442 48.8958 156.228 49.0257C155.995 49.1663 155.321 49.5505 155.094 49.6107L155.179 50.9851C155.179 52.3127 154.728 53.8013 154.292 54.7379C153.242 56.9962 151.7 58.3059 149.567 59.3784C147.183 60.5784 144.215 60.4578 141.836 59.4314C140.532 58.868 140.18 58.4711 139.297 57.7613C139.149 57.6432 139.116 57.6445 138.959 57.4969C138.308 56.8898 137.414 55.5316 137.02 54.7107C136.449 53.5213 136.175 52.1051 136.107 50.8071L136.353 48.7424C136.689 47.0464 137.678 45.2414 138.875 44.0462C140.772 42.1528 143.776 40.7477 147.056 41.3241C147.541 41.4091 147.959 41.5837 148.391 41.6203C148.842 40.947 149.367 40.2917 149.852 39.6433L154.32 33.6289C149.4 31.0258 142.527 30.825 137.536 33.3419C136.407 33.9112 135.595 34.339 134.608 35.0536C132.503 36.5761 131.52 37.6 129.931 39.7425C127.867 42.5276 126.482 46.7592 126.482 50.4703V50.4703Z" fill="#E64741"/>
<path fill-rule="evenodd" clip-rule="evenodd" d="M145.643 50.5558C146.087 50.453 154.461 45.1309 155.487 44.5049C157.304 43.3982 161.445 40.3695 163.583 38.938L171.677 33.3716C172.146 33.0598 172.59 32.7317 173.052 32.4258L181.146 26.858C181.622 26.5427 181.99 26.265 182.469 25.9473L188.936 21.5015C189.131 21.3645 189.135 21.4353 189.206 21.1707L182.474 18.2784C181.935 18.0575 182.022 17.7163 181.763 16.5824L180.442 10.6875C180.083 10.9273 175.794 16.0614 175.008 16.8528L169.55 23.0817C169.335 23.3109 169.273 23.4419 169.035 23.6829C168.789 23.9286 168.722 24.0822 168.477 24.3279L167.401 25.5726C167.015 26.0061 166.702 26.3665 166.324 26.8165L161.947 31.803C161.708 32.0427 161.647 32.1715 161.431 32.4041C161.203 32.6486 161.093 32.8249 160.873 33.0505L158.702 35.5188C158.368 35.957 157.979 36.309 157.611 36.7484L156.018 38.5911C155.77 38.8415 155.693 38.9904 155.459 39.2361L149.959 45.5075C149.758 45.7224 149.66 45.8774 149.445 46.11C148.909 46.6864 145.704 50.3243 145.643 50.5558V50.5558Z" fill="black"/>
<path fill-rule="evenodd" clip-rule="evenodd" d="M214.682 39.2056C215.875 38.0541 216.946 37.7884 218.949 37.9821C221.69 38.2466 224.726 39.8056 226.756 41.393C227.429 41.9198 229.071 43.4314 229.577 44.0763C230.384 45.1098 231.211 46.0609 232.085 47.1901C232.644 47.9106 234.008 49.9866 234.518 50.3823C235.686 51.2858 237.438 51.3626 238.665 50.4414C239.186 50.0504 239.655 49.4871 240.098 49.0619L261.338 28.363C262.206 27.5386 263.193 26.4628 264.1 25.6183C266.037 23.8159 267.869 21.9246 269.801 20.0727C270.615 19.2919 271.606 17.9067 273.573 18.2161C274.913 18.4263 276.092 19.6666 276.191 21.156C276.295 22.7339 275.224 23.7486 274.101 24.7242C272.269 26.3139 268.6 30.521 266.454 32.5407C264.392 34.4824 259.991 39.2931 258.832 40.2663C254.548 43.8628 259.196 48.3129 262.431 45.8586C262.985 45.4381 263.383 44.974 264.416 45.1075C265.245 45.2149 265.72 45.6603 266.06 46.2544C267.758 49.2096 261.902 49.924 263.677 53.9067C264.178 55.0323 265.69 56.1309 267.458 55.6987C268.542 55.4317 268.809 54.8706 269.225 54.6403C271.316 53.4828 274.327 55.9629 272.163 58.2814C271.716 58.7597 271.228 59.1261 270.881 59.8159C269.825 61.9076 271.306 64.5842 273.816 64.5546C276.07 64.5286 275.748 62.7842 278.245 63.3629C279.074 63.5554 279.513 63.8294 279.624 64.7613C279.719 65.5574 279.544 66.4951 279.208 67.0857C279.054 67.355 278.778 67.6584 278.573 67.858L277.859 68.5478C273.633 72.7017 269.584 76.9265 265.389 81.1478C263.513 83.0352 258.632 88.1567 256.681 89.3071C252.504 91.7673 247.331 90.8409 244.185 87.9271L231.87 75.0545C231.387 74.5773 231.007 74.0765 230.543 73.5698L229.146 72.1548C226.683 69.4181 226.717 70.5699 226.11 66.8836C225.842 65.2561 225.566 63.684 225.3 62.0623C224.779 58.8816 224.266 55.6951 223.708 52.5286C223.275 50.0849 223.494 50.067 222.185 48.4229L218.369 43.8059C217.655 42.9532 214.883 39.7041 214.682 39.2056V39.2056ZM268.135 40.2829C268.313 39.7231 271.14 37.0487 271.846 36.4097C272.936 35.4235 280.336 27.8705 281.001 26.8169C283.483 22.8839 281.661 19.3749 281.484 17.7497C281.31 16.1564 281.233 16.0538 280.409 15.0345C279.892 14.3967 279.302 13.8743 278.49 13.3191C275.115 11.0113 270.326 11.1708 267.168 13.572C265.75 14.6491 263.779 16.8757 262.406 18.182L252.027 28.3053C250.821 29.4723 249.301 30.7146 248.219 31.9949C247.666 32.6504 246.961 33.2375 246.316 33.8422L240.677 39.3307C240.007 39.9767 237.419 42.7231 236.885 42.9381C236.153 41.9082 235.355 40.7622 234.563 39.7925C232.322 37.0429 228.625 34.2804 225.086 32.8595C219.395 30.5752 213.026 30.5514 208.937 35.4755C208.292 36.2514 207.04 37.6205 207.001 39.0815C206.957 40.7433 208.254 41.7936 208.946 42.683C210.504 44.6861 212.322 46.6605 213.868 48.6554C217.409 53.2227 216.869 51.1027 217.626 55.7775C217.833 57.0555 220.089 71.2842 220.446 72.1889C220.842 73.2011 223.467 75.6887 224.271 76.5604C224.512 76.8226 224.684 77.047 224.95 77.288C225.283 77.5891 225.356 77.6256 225.61 77.915L232.217 84.9001C234.125 87.0627 236.851 89.7358 238.886 91.9373C242.245 95.5704 247.435 97.5698 252.616 97.2048C257.338 96.8717 260.781 94.9644 263.785 91.9609C264.653 91.0916 265.605 90.057 266.48 89.2928L265.943 89.1415C267.388 88.7895 268.659 87.0392 270.048 85.6904L281.159 74.5419C283.192 72.4903 286.604 69.828 286.378 64.8531C286.28 62.713 285.268 60.5965 284.193 59.5169C283.479 58.8 283.13 58.485 281.995 57.9677C281.076 57.5496 280.168 57.4452 279.261 57.0685C279.087 52.1988 277.466 49.3241 272.355 48.5197C272.523 46.3075 272.546 44.8454 271.652 43.0064C270.808 41.2678 270.009 40.694 268.135 40.2829V40.2829Z" fill="black"/>
<path fill-rule="evenodd" clip-rule="evenodd" d="M246.47 15.4183C246.837 13.5392 245.416 11.9199 243.818 11.66C241.645 11.3069 240.418 13.0643 239.539 13.9443C238.417 15.0663 237.369 16.0959 236.262 17.2274C235.454 18.0529 233.644 19.4553 233.376 20.9234C233.004 22.9572 234.454 24.5671 236.107 24.7892C238.204 25.0703 239.476 23.3208 240.321 22.4574C241.424 21.3318 242.473 20.283 243.603 19.1799C244.457 18.3448 246.168 16.9715 246.47 15.4183V15.4183Z" fill="#E64741"/>
<path fill-rule="evenodd" clip-rule="evenodd" d="M213.645 15.6534C213.947 16.8947 215.754 18.383 216.659 19.2724C217.791 20.3838 218.818 21.4255 219.939 22.5522C220.352 22.968 221.121 23.856 221.577 24.1938C223.926 25.9347 227.445 23.828 226.682 20.7335C226.358 19.4201 224.438 17.869 223.658 17.0753C222.547 15.945 221.499 14.9199 220.378 13.7955C219.52 12.9321 218.279 11.2136 216.159 11.6589C214.566 11.9931 213.145 13.5959 213.645 15.6534Z" fill="#E64741"/>
<path fill-rule="evenodd" clip-rule="evenodd" d="M226.793 15.4183C227.167 18.2529 231.047 19.1951 232.624 16.9865C233.57 15.6601 233.318 14.544 233.324 12.7239C233.328 11.342 233.455 9.09422 233.292 7.808C232.922 4.86468 229.265 4.02986 227.433 6.29286C226.554 7.38066 226.777 8.90539 226.767 10.4987C226.757 11.7944 226.637 14.2443 226.793 15.4183Z" fill="#E64741"/>
<path fill-rule="evenodd" clip-rule="evenodd" d="M346.922 89.4932C346.35 88.9404 340.265 74.5299 339.985 73.7776C339.159 71.5618 333.248 58.9119 333.265 57.6859L360.561 57.661C360.526 58.2586 351.454 79.2859 350.4 81.5465L346.922 89.4932V89.4932ZM356.605 83.1318C356.706 82.3688 366.739 59.0029 367.552 57.6753L382.232 57.6661C382.01 58.5566 364.547 75.3331 363.163 76.8166C362.485 77.543 357.212 82.8613 356.605 83.1318ZM311.584 57.6638L325.954 57.6624C326.49 58.5506 326.869 59.6314 327.353 60.7688C327.839 61.9097 328.3 62.8818 328.783 63.9873L337.01 83.2402C336.481 83.1103 324.822 71.2571 324.212 70.6559C321.788 68.2701 320.133 66.5195 317.831 64.2281C317.018 63.4179 311.792 58.6299 311.584 57.6638V57.6638ZM333.71 51.1013C333.827 50.0832 340.561 36.1298 341.217 34.7527L352.704 34.7536C353.38 36.0244 353.912 37.4348 354.644 38.8427C355.513 40.5163 360.091 49.8811 360.175 51.0953L333.71 51.1013V51.1013ZM382.712 51.3661L367.542 51.3389L363.638 43.174C363.013 41.8051 359.986 35.923 359.918 34.964L368.226 35.0027C368.718 35.7929 369.509 36.4225 370.09 37.084C371.735 38.956 382.604 50.687 382.712 51.3661V51.3661ZM310.987 51.105C311.139 50.2156 311.747 49.8989 312.735 48.7391L324.871 35.244C325.427 34.6641 325.27 34.7465 326.32 34.7453L333.599 34.7739C333.462 35.6644 328.681 45.5077 327.744 47.4435C326.592 49.8305 326.51 51.113 325.281 51.1142L310.987 51.105V51.105ZM368.061 28.3899L324.588 28.3876C322.813 28.3864 322.335 28.8386 321.429 29.7127L302.157 50.9702C301.18 52.0911 298.527 54.4453 301.075 57.0815C309.639 65.9457 319.276 75.0103 328.087 84.1071C333.224 89.4115 338.627 94.6193 343.857 99.8634C347.4 103.417 349.479 99.5729 352.053 97.2225C353.682 95.7355 355.046 94.2175 356.541 92.714C359.573 89.6679 362.505 86.7791 365.551 83.7117C371.298 77.9232 377.76 71.3347 383.685 65.6418L392.646 56.5957C394.757 54.1638 392.226 51.9733 390.995 50.6445C389.574 49.1079 388.252 47.6066 386.729 45.9058C383.848 42.6885 380.989 39.4957 378.156 36.4662L371.745 29.3643C370.671 28.2612 370.01 28.3911 368.061 28.3899V28.3899Z" fill="#060606"/>
<path fill-rule="evenodd" clip-rule="evenodd" d="M314.808 6.95719C312.865 7.96586 311.986 9.4941 313.087 11.6272L319.001 20.2778C320.038 21.8015 320.727 23.624 323.691 22.9307C325.397 22.5303 326.209 20.0804 325.116 18.1505L317.876 7.20541C317.173 6.64911 315.615 6.53908 314.808 6.95719Z" fill="#E64741"/>
<path fill-rule="evenodd" clip-rule="evenodd" d="M376.94 7.42111C375.585 7.92899 374.725 9.55651 373.404 11.1923C372.347 12.4986 371.357 13.9728 370.301 15.3617C369.319 16.6539 367.75 18.2105 367.725 20.0672C367.695 22.1401 369.824 23.5407 372.015 22.7907C373.498 22.2816 374.249 20.5502 375.492 19.0089C376.638 17.5868 377.386 16.4423 378.618 14.8455C379.202 14.0907 379.682 13.4554 380.188 12.7739C380.82 11.9235 381.29 11.6847 381.284 10.187C381.273 7.89331 379.32 6.52701 376.94 7.42111Z" fill="#E64741"/>
<path fill-rule="evenodd" clip-rule="evenodd" d="M345.604 1.19368C342.354 2.29802 343.431 6.18042 343.49 11.0513C343.508 12.4544 343.359 16.0475 343.689 17.0786C344.585 19.8648 349.871 21.3482 349.823 15.3812C349.805 13.1868 349.907 4.67209 349.452 3.16973C348.852 1.1902 347.164 0.663369 345.604 1.19368V1.19368Z" fill="#E64741"/>
</svg>
