<svg width="246" height="241" viewBox="0 0 246 241" fill="none" xmlns="http://www.w3.org/2000/svg">
<path fill-rule="evenodd" clip-rule="evenodd" d="M116.001 52.8189L96.7951 52.788C95.7682 58.99 96.4392 134.733 96.4511 147.77C96.4595 158.187 97.4364 168.669 85.651 168.738C73.962 168.806 74.6616 159.033 74.6747 148.621C74.6938 135.249 75.3197 59.5232 74.3856 52.788L53.8667 52.8486C52.8399 67.8104 53.7381 117.16 53.7298 135.864C53.7179 157.403 50.2829 187.728 84.8002 188.035C98.7892 188.159 107.701 182.376 112.268 173.493C117.727 162.872 116.258 148.472 116.258 135.864C116.258 122.325 116.977 60.7736 116.001 52.8189Z" fill="#FEFEFE"/>
<path fill-rule="evenodd" clip-rule="evenodd" d="M146.889 146.15L127.214 146.115C126.509 171.936 133.458 188.922 160.596 187.835C173.212 187.33 180.3 182.277 184.953 174.693C192.291 162.732 191.065 142.752 182.288 129.468L169.124 114.568C167.237 112.934 165.935 111.91 164.065 110.246C133.574 83.1248 155.117 61.6583 166.48 72.9651C170.422 76.886 169.557 83.1878 169.799 89.0122L189.447 89.0264C190.232 64.1566 179.411 48.2639 152.897 51.6469C127.237 54.9219 124.284 82.9586 130.276 99.7953C137.549 120.234 153.785 125.693 164.071 140.874C168.891 147.985 172.206 164.953 162.039 168.036C145.985 172.907 147.258 157.502 146.889 146.15V146.15Z" fill="#FEFEFE"/>
<path fill-rule="evenodd" clip-rule="evenodd" d="M0.175049 214.132L0.209675 232.813C7.11194 234.891 18.3749 233.453 24.2658 231.034C45.6354 222.259 40.3477 190.718 40.3584 163.928C40.3644 145.202 41.3245 64.2326 40.143 52.9222L19.6255 52.7987C18.6415 61.5929 19.4029 169.086 19.4005 187.74C19.3981 208.185 22.4667 214.683 0.175049 214.132Z" fill="#FEFEFE"/>
<path fill-rule="evenodd" clip-rule="evenodd" d="M244.247 186.304L244.645 167.564C220.882 165.96 225.345 169.224 225.358 109.335L234.217 109.126L234.514 88.3793L225.361 88.1857L225.321 52.7916L204.542 52.8522C203.501 67.5776 204.404 121.347 204.417 140.117C204.436 165.168 203.908 191.333 244.247 186.304Z" fill="#FEFEFE"/>
<path fill-rule="evenodd" clip-rule="evenodd" d="M24.8476 0.989406C1.70047 7.52272 10.1173 42.4609 33.982 37.4213C58.388 32.2678 49.6606 -6.01294 24.8476 0.989406Z" fill="#E64741"/>
<path d="M86.6538 214.002C83.2414 214.002 80.5477 215.544 79.1829 217.982C78.0335 215.329 75.5907 214.002 72.465 214.002C69.3048 214.002 66.862 215.329 65.533 217.587V214.146H63.0903V233.003H65.6401V223.109C65.6401 218.807 68.1184 216.297 71.9628 216.297C75.4109 216.297 77.423 218.34 77.423 222.319V233.003H79.9728V223.109C79.9728 218.807 82.4156 216.297 86.2957 216.297C89.7082 216.297 91.719 218.34 91.719 222.319V233.003H94.27V222.069C94.27 216.655 91.2526 214.002 86.6538 214.002V214.002ZM107.813 214.002C104.831 214.002 102.029 214.935 100.125 216.548L101.275 218.448C102.819 217.086 105.119 216.225 107.561 216.225C111.081 216.225 112.914 217.982 112.914 221.208V222.356H106.914C101.49 222.356 99.6219 224.793 99.6219 227.697C99.6219 230.959 102.244 233.182 106.52 233.182C109.644 233.182 111.871 231.999 113.021 230.063V233.003H115.464V221.316C115.464 216.44 112.698 214.002 107.813 214.002V214.002ZM106.914 231.174C103.897 231.174 102.137 229.812 102.137 227.625C102.137 225.689 103.322 224.256 106.986 224.256H112.914V227.339C111.907 229.812 109.788 231.174 106.914 231.174ZM124.839 217.839V214.146H122.397V233.003H124.946V223.395C124.946 218.95 127.353 216.44 131.305 216.44C131.485 216.44 131.7 216.476 131.915 216.476V214.002C128.432 214.002 126.024 215.329 124.839 217.839ZM151.134 233.003H154.259L145.422 221.854L153.505 214.146H150.344L139.064 224.435V206.403H136.514V233.003H139.064V227.625L143.519 223.539L151.134 233.003V233.003ZM173.836 223.574C173.836 217.91 169.993 214.002 164.676 214.002C159.359 214.002 155.445 217.982 155.445 223.574C155.445 229.167 159.467 233.182 165.358 233.182C168.34 233.182 170.962 232.106 172.651 230.099L171.213 228.45C169.777 230.099 167.73 230.923 165.431 230.923C161.3 230.923 158.282 228.306 157.994 224.363H173.8C173.8 224.077 173.836 223.789 173.836 223.574V223.574ZM164.676 216.19C168.376 216.19 171.069 218.771 171.393 222.463H157.994C158.318 218.771 161.012 216.19 164.676 216.19ZM188.097 230.027C187.379 230.673 186.336 230.995 185.295 230.995C183.176 230.995 182.027 229.776 182.027 227.554V216.297H187.774V214.146H182.027V210.023H179.476V214.146H176.099V216.297H179.476V227.697C179.476 231.174 181.452 233.182 185.007 233.182C186.48 233.182 187.989 232.752 188.994 231.856L188.097 230.027ZM194.922 210.023C195.999 210.023 196.79 209.199 196.79 208.159C196.79 207.191 195.963 206.403 194.922 206.403C193.88 206.403 193.054 207.227 193.054 208.196C193.054 209.199 193.88 210.023 194.922 210.023ZM193.629 233.003H196.179V214.146H193.629V233.003ZM212.918 214.002C209.649 214.002 207.099 215.329 205.734 217.623V214.146H203.291V233.003H205.841V223.109C205.841 218.807 208.392 216.297 212.451 216.297C216.043 216.297 218.127 218.34 218.127 222.319V233.003H220.678V222.069C220.678 216.655 217.516 214.002 212.918 214.002V214.002ZM242.732 214.146V217.767C241.152 215.293 238.423 214.002 235.261 214.002C229.873 214.002 225.778 217.695 225.778 223.109C225.778 228.521 229.873 232.285 235.261 232.285C238.35 232.285 241.044 231.032 242.625 228.629V231.032C242.625 235.691 240.434 237.878 235.656 237.878C232.747 237.878 230.017 236.911 228.221 235.297L226.928 237.232C228.903 239.097 232.28 240.137 235.728 240.137C241.978 240.137 245.175 237.197 245.175 230.709V214.146H242.732ZM235.512 230.027C231.346 230.027 228.364 227.195 228.364 223.109C228.364 219.022 231.346 216.225 235.512 216.225C239.679 216.225 242.697 219.022 242.697 223.109C242.697 227.195 239.679 230.027 235.512 230.027Z" fill="#E95852"/>
</svg>
