<svg width="367" height="67" viewBox="0 0 367 67" fill="none" xmlns="http://www.w3.org/2000/svg">
<path fill-rule="evenodd" clip-rule="evenodd" d="M131.907 2.35129C138.369 1.98562 144.999 3.82611 150.272 7.2094C151.815 8.19969 153.485 9.46201 154.653 10.6213C156.595 12.5516 156.42 12.2327 158.371 14.706C162.068 19.3889 164.222 25.5465 164.653 31.8599C164.964 36.4409 164.011 41.2629 162.447 45.1042C161.401 47.6758 159.871 50.4235 158.169 52.5732C153.198 58.8494 145.479 64.0682 135.141 64.6509C127.712 65.0693 120.028 62.6297 114.414 58.1614C114.043 57.8665 113.621 57.5595 113.319 57.2861L112.334 56.3846C111.495 55.6976 111.08 55.1113 110.372 54.398L109.014 52.8106C108.831 52.5864 108.786 52.5265 108.611 52.2987C102.003 43.6787 100.507 32.0457 104.542 21.8779C105.258 20.0735 106.25 18.1852 107.196 16.7261C109.577 13.0515 113.284 9.19105 117.037 7.01505C121.718 4.30194 125.841 2.69537 131.907 2.35129ZM100.013 34.8918C100.133 39.661 101.568 44.4676 103.404 48.2213C105.337 52.1777 107.548 54.9351 110.532 57.8556C116.59 63.7865 125.755 67.3555 134.829 66.9719C136.602 66.8976 138.779 66.6554 140.474 66.2718C143.384 65.6136 145.54 64.8895 148.223 63.5791L150.924 62.0878C156.704 58.6026 161.873 52.7855 164.455 46.2946C165.305 44.157 165.917 42.2675 166.395 39.8445C167.356 34.9865 167.166 29.6274 165.871 24.8714L164.853 21.7015C163.914 19.0376 162.054 15.6855 160.407 13.579L156.462 9.13958C156.226 8.87462 156.161 8.82774 155.909 8.62513C155.695 8.45369 155.56 8.29079 155.351 8.11935C152.537 5.81506 149.886 3.98417 146.301 2.54189C137.301 -1.07758 127.481 -0.873578 118.784 3.42327C114.68 5.45181 112.189 7.43948 109.142 10.541C106.524 13.2074 104.388 16.4852 102.533 20.6909C100.708 24.8247 99.8856 29.8372 100.013 34.8918Z" fill="#010101"/>
<path fill-rule="evenodd" clip-rule="evenodd" d="M125.416 18.5121C126.47 18.337 129.071 18.4904 130.294 18.4856C134.933 18.4664 138.498 17.8887 141.64 21.658C145.408 26.179 143.108 32.611 138.897 34.5916L145.623 46.2054L140.338 46.1958C139.658 45.0041 134.198 35.8853 134.155 35.5448L129.673 35.5411L129.662 46.2043L125.406 46.1766L125.416 18.5121ZM132.007 37.8586C133.006 37.8418 132.621 37.6214 133.53 39.1308L137.738 46.3422C139.304 49.0301 139.436 48.5205 144.18 48.5121C145.037 48.5109 146.003 48.6368 146.72 48.2724C147.209 48.0242 147.808 47.4427 147.944 46.6166C148.106 45.6395 147.663 45.0532 147.303 44.4202C146.963 43.8231 146.592 43.177 146.249 42.5991C146.201 42.5188 142.191 35.7773 142.028 35.3013C143.211 34.0413 143.739 33.7741 144.689 31.869C147.116 26.9991 145.554 21.7023 141.874 18.6331C139.081 16.3049 136.574 16.1335 132.184 16.1742C130.161 16.1922 128.128 16.1719 126.104 16.1707C123.78 16.1695 123.088 16.9966 123.09 19.2829C123.099 27.4162 123.095 35.5484 123.1 43.6805C123.1 45.8133 122.744 47.5998 124.501 48.3204C125.207 48.6105 129.561 48.6571 130.343 48.4161C132.21 47.8359 131.986 46.1215 131.986 44.009C131.986 42.9444 131.931 38.5168 132.007 37.8586Z" fill="#E64741"/>
<path fill-rule="evenodd" clip-rule="evenodd" d="M131.602 7.00348C119.588 8.00336 110.916 16.0851 108.004 25.9988C106.279 31.871 106.738 38.8032 109.114 44.0747C110.658 47.4964 112.159 49.5871 114.422 51.9933C114.81 52.4057 115.465 52.9644 116.24 52.3853C116.447 52.2306 116.668 51.8901 116.671 51.4861C116.677 50.7728 115.749 50.0847 114.961 49.1532C112.378 46.102 110.638 42.6083 109.747 38.435C108.222 31.2979 110.259 23.1885 114.898 17.9373C115.451 17.3115 116.812 15.8011 117.479 15.2628L118.94 14.0938C123.286 10.7249 129.64 8.82227 135.324 9.30902C135.836 9.35338 137.361 9.6016 137.728 9.53686C138.367 9.42296 138.921 8.70842 138.595 7.94832C138.291 7.24097 137.576 7.23116 136.708 7.12805C135.04 6.92904 133.289 6.86321 131.602 7.00348Z" fill="#010101"/>
<path fill-rule="evenodd" clip-rule="evenodd" d="M148.893 12.3726C147.904 12.6507 147.572 13.7311 148.699 14.6015C157.309 21.2422 160.344 34.074 155.284 44.1855C154.378 45.9947 153.453 47.3492 152.362 48.7388C151.781 49.4785 151.171 50.0444 150.62 50.6966C149.854 51.6029 150.663 52.9374 151.832 52.5633C152.582 52.3235 154.71 49.5158 155.324 48.661C161.903 39.511 161.464 26.4958 154.768 17.57L153.058 15.5019C152.685 15.1374 152.483 14.9205 152.15 14.6015L150.174 12.8091C149.867 12.5537 149.457 12.2155 148.893 12.3726Z" fill="#010101"/>
<path fill-rule="evenodd" clip-rule="evenodd" d="M131.992 25.0875C132.378 25.0192 135.039 25.0253 135.417 25.1044C137.489 25.536 137.463 28.5308 135.361 28.9336C134.956 29.0115 132.361 29.0152 131.981 28.9324L131.992 25.0875ZM129.679 31.2415C130.389 31.3842 132.33 31.2787 133.171 31.2787C134.305 31.2787 135.332 31.3841 136.389 31.0436C140.204 29.8184 140.234 24.1956 136.32 22.9487C135.542 22.7005 130.644 22.6225 129.672 22.7724L129.679 31.2415Z" fill="#E64741"/>
<path fill-rule="evenodd" clip-rule="evenodd" d="M142.084 8.60593C141.089 8.9417 140.715 10.2848 142.247 10.864C143.317 11.2681 144.586 12.0848 145.26 11.899C145.971 11.7035 146.814 10.3796 145.087 9.5929C144.451 9.3039 142.782 8.3709 142.084 8.60593Z" fill="#010101"/>
<path fill-rule="evenodd" clip-rule="evenodd" d="M138.201 54.9352C138.314 55.5526 138.794 57.3987 139.094 57.7212C139.814 58.4933 141.242 57.9336 141.053 56.6736C140.961 56.0669 140.446 54.1666 140.155 53.8693C139.411 53.1128 137.972 53.6895 138.201 54.9352Z" fill="#010101"/>
<path fill-rule="evenodd" clip-rule="evenodd" d="M128.769 55.0182C129.068 53.8241 127.813 53.1238 126.924 53.7844C126.506 54.0937 126.129 55.8082 125.971 56.5287C125.706 57.736 126.897 58.532 127.809 57.7899C128.269 57.4159 128.573 55.7939 128.769 55.0182Z" fill="#010101"/>
<path fill-rule="evenodd" clip-rule="evenodd" d="M132.376 58.0566C132.6 58.9798 133.931 59.192 134.467 58.3671C134.724 57.9727 134.748 55.7175 134.598 55.1409C134.358 54.2165 133.082 53.9877 132.534 54.7945C132.265 55.189 132.237 57.4884 132.376 58.0566Z" fill="#010101"/>
<path fill-rule="evenodd" clip-rule="evenodd" d="M143.623 52.6362C143.665 52.924 144.749 54.7924 144.993 55.109C145.712 56.0395 147.193 55.5203 147.054 54.2911C147.016 53.9602 145.905 52.0379 145.702 51.7729C144.953 50.792 143.443 51.3962 143.623 52.6362Z" fill="#010101"/>
<path fill-rule="evenodd" clip-rule="evenodd" d="M121.813 51.3662C121.243 51.5737 120.571 52.9911 120.202 53.635C119.517 54.8282 120.396 55.9436 121.487 55.4963C122.146 55.2265 122.654 53.9374 123.089 53.2383C123.774 52.1374 122.991 50.9381 121.813 51.3662Z" fill="#010101"/>
<path fill-rule="evenodd" clip-rule="evenodd" d="M329.174 10.1739L326.666 10.5693L326.577 10.6201C326.169 10.8138 326.821 10.5331 326.482 10.663L325.971 10.8023C325.727 10.8685 325.52 10.9429 325.286 10.9878C324.872 11.1992 324.063 11.4259 323.588 11.6291C321.885 12.3614 320.626 13.0945 319.187 14.2331C317.751 15.3693 316.852 16.4078 315.747 17.8617C315.614 18.0354 314.895 19.1527 314.827 19.1988L313.797 21.2431C313.655 21.5337 313.638 21.7202 313.461 21.895C313.46 22.0982 313.14 22.9558 313.05 23.0798L312.314 25.7737C312.385 26.173 312.131 26.6666 312.175 27.0753L312.037 28.2661L312 28.8363L312.012 31.1492L312.095 32.1093L312.269 33.4477C312.451 33.8363 312.624 36.0316 314.222 39.0233C315.129 40.7241 316.206 42.2883 317.178 43.7233C319.594 47.2843 319.202 48.939 319.2 53.126C319.2 54.1453 319.315 56.1189 319.172 57.0237L322.82 57.0117L322.806 48.7568C322.544 45.7533 321.662 44.056 320.349 41.9572C319.844 41.1469 316.865 36.895 316.85 36.1001C316.761 36.0115 316.834 36.1214 316.729 35.9396C316.71 35.9053 316.667 35.7967 316.651 35.7578L316.277 34.6842C315.823 33.3554 315.589 31.4336 315.588 29.9288C315.588 28.2741 315.783 26.6172 316.181 25.1089C316.762 22.905 317.934 20.4851 319.427 18.8421C319.556 18.6992 319.652 18.6153 319.772 18.4795L320.061 18.217C320.066 18.2016 320.085 18.2039 320.097 18.2004L320.384 17.865C321.262 17.0854 321.359 16.9712 322.475 16.2354C323.134 15.8008 324.512 15.067 325.373 14.8319C325.563 14.6843 326.048 14.5476 326.311 14.544L326.423 14.485C326.519 15.47 326.413 23.5004 326.438 25.5L330.052 24.4819L330.05 13.7878C331.163 13.7122 331.974 13.6036 333.15 13.678C335.215 13.8091 336.667 14.0749 338.554 14.7599C339.058 14.943 340.488 15.5383 340.695 15.8502C340.988 15.9446 341.81 16.5105 341.929 16.7314L341.98 16.7563C342.319 16.885 343.171 17.7424 343.364 18.0412C343.525 18.0719 343.603 18.2374 343.726 18.3886C343.857 18.5492 343.984 18.6898 344.106 18.8421C345.88 21.0685 347.049 24.098 347.469 26.9858C347.736 28.8283 348.529 29.8626 349.458 31.5469C349.816 32.1976 351.743 35.3973 351.728 35.8662C351.433 36.0481 348.673 37.0192 348.116 37.2318C348.116 38.9208 348.221 44.493 348.01 45.7556C347.789 47.0749 347.247 47.9077 346.449 48.4994C345.897 48.9104 344.247 49.7753 343.316 49.6879C342.705 49.9808 341.589 49.6616 340.893 49.8175L340.896 56.9987L342.008 57.014H343.314L344.482 57.0117L344.504 52.9465L345.936 52.7869C346.146 52.6593 346.825 52.4536 347.15 52.2836L348.32 51.6178C348.457 51.4276 348.448 51.4213 348.673 51.3304C348.751 51.1969 349.538 50.4011 349.681 50.3444C349.732 50.2251 349.677 50.2948 349.778 50.1566C349.889 50.0055 349.83 50.0845 349.917 50.0136C350.101 49.6593 350.41 49.2859 350.655 48.8477C350.901 48.4095 351.029 47.9809 351.239 47.5333L351.532 46.3914C351.536 46.3666 351.569 46.1963 351.575 46.175L351.64 46.0145C351.646 46.0003 351.656 45.9791 351.666 45.9614C351.642 45.8646 351.736 43.3252 351.736 42.9095C351.736 41.8665 351.717 40.8021 351.74 39.7615C352.285 39.4875 352.941 39.3341 353.484 39.0187C355.188 38.0254 355.876 35.6489 354.816 33.7084C354.398 32.9418 351.242 27.4793 351.232 27.1509C350.999 26.8923 350.992 26.1661 350.921 25.7728C350.835 25.2862 350.709 24.8113 350.633 24.3389C350.476 24.007 350.283 23.0891 350.157 22.6923C348.304 16.9025 344.262 12.5902 338.31 10.8858C336.516 10.372 334.592 10.0866 332.701 10.0323C332.19 10.0181 330.994 10.1453 330.616 10C330.598 10.0094 330.575 10.0165 330.561 10.0212L329.174 10.1739Z" fill="black"/>
<path fill-rule="evenodd" clip-rule="evenodd" d="M329.407 28.1646C331.572 27.7559 333.318 29.2996 333.605 31.0901C333.948 33.2456 332.496 34.9523 330.714 35.2664C328.537 35.6491 326.818 34.1701 326.497 32.4032C326.088 30.1555 327.605 28.5047 329.407 28.1646ZM326.364 25.4753L325.571 26.0787C321.337 29.3976 322.171 35.9339 326.913 38.2229C327.088 38.3067 327.724 38.5394 327.815 38.6067L329.144 38.8863L329.55 38.9255C330.487 38.9539 330.941 38.8736 331.799 38.7272C331.99 38.6209 332.502 38.4863 332.742 38.3894C333.053 38.2642 333.345 38.0942 333.663 37.9359C333.895 38.0824 334.116 38.2997 334.201 38.4886C334.341 38.5512 334.294 38.5049 334.355 38.6455C334.569 38.7376 334.758 38.994 334.947 39.183C335.137 39.372 335.394 39.5598 335.485 39.7735C335.627 39.8361 335.58 39.7901 335.641 39.9295C335.789 39.9933 335.809 40.039 335.943 40.1772C336.054 40.2906 336.121 40.3557 336.233 40.4679C336.423 40.6569 336.678 40.8473 336.771 41.0575C336.96 41.1591 337.088 41.2984 337.238 41.4566C337.479 41.7094 337.379 41.6989 337.317 42.1016C337.214 42.7737 337.34 43.1493 337.456 43.7446C337.524 43.826 337.678 44.2594 337.902 44.5842L338.075 44.8804C338.215 44.9478 338.158 44.8463 338.233 45.0613C338.244 45.066 338.263 45.0635 338.267 45.0788C338.267 45.0788 340.076 46.9147 342.43 45.8304C346.006 44.1839 344.622 38.667 340.668 38.9505C339.959 39.0001 340.103 39.2197 339.671 38.765C339.338 38.4166 338.411 37.6144 338.266 37.3061C338.132 37.2447 338.174 37.2945 338.111 37.1493C337.897 37.0512 337.712 36.802 337.519 36.6095C337.328 36.4193 337.077 36.2313 336.98 36.0175C336.83 35.9549 336.886 36.0021 336.826 35.8639C336.633 35.7777 336.423 35.5579 336.271 35.3264C336.443 34.9933 336.588 34.756 336.728 34.4064C336.82 34.1761 336.962 33.6401 337.062 33.4629C337.218 32.544 337.295 32.088 337.25 31.0864L337.279 30.8973L336.94 29.479C336.835 29.329 336.607 28.6582 336.471 28.4054C336.282 28.0511 336.077 27.7287 335.88 27.4559C335.431 26.8335 334.94 26.3418 334.338 25.9131C334.167 25.7737 334.181 25.8294 334.071 25.651C333.608 25.579 332.594 24.5044 330.052 24.4819L329 24.5171L327.5 25L326.364 25.4753Z" fill="#E64741"/>
<path fill-rule="evenodd" clip-rule="evenodd" d="M237.498 17.563L233.212 17.6645C232.125 17.6633 229.809 17.7838 228.87 17.616C228.755 17.1129 228.755 9.42611 228.871 8.93123C229.467 8.81784 237.115 8.82757 237.532 8.94922C237.679 10.0441 237.562 12.0767 237.563 13.2732C237.563 14.1177 237.714 17.0457 237.498 17.563ZM206.923 11.9126C208.867 11.3303 209.359 14.2095 207.772 14.643C205.858 15.165 205.117 12.4535 206.923 11.9126ZM258.648 11.9657C260.418 11.1719 261.449 13.9086 259.756 14.5936C258.005 15.3011 256.863 12.7653 258.648 11.9657ZM225.98 11.7945L211.433 11.8369C211.146 11.4271 211.085 11.0822 210.771 10.677C208.124 7.26247 203 9.28694 203 13.2732C203 17.2629 208.086 19.2426 210.73 15.9237C211.078 15.4879 211.131 15.1546 211.433 14.7223L217.26 14.7131C216.892 15.0415 216.13 15.4214 215.662 15.7332C215.098 16.1064 214.618 16.4397 214.075 16.8483C212.99 17.6656 212.097 18.4581 211.206 19.3794C209.242 21.4133 208.015 22.9878 206.611 25.5839C205.356 27.9024 204.372 30.6375 203.828 33.5997C203.635 34.6473 203.279 37.5473 203.441 38.5949C203.693 40.2379 206.157 40.2036 206.302 38.4178C206.598 34.7847 206.578 32.9056 208.043 29.3422C210.086 24.3756 213.418 20.4377 217.982 17.6857C219.724 16.6345 223.528 14.9029 225.991 14.7163C225.982 15.7841 225.993 16.8601 225.989 17.9302C225.98 21.1558 226.532 20.4898 233.118 20.4862C241.284 20.4815 240.422 21.6212 240.396 14.7519C241.238 14.681 243.886 15.5799 244.663 15.8693C250.777 18.1476 255.898 23.1812 258.31 29.2296C259.496 32.2048 259.967 34.7162 260.092 38.2406C260.164 40.2426 262.528 40.1963 262.9 38.7813C263.132 37.8943 262.755 34.6864 262.581 33.7155C262.055 30.7675 261.121 28.0864 259.816 25.6711C258.439 23.1246 256.948 21.1853 255.269 19.4195C254.59 18.7061 253.219 17.5414 252.391 16.8954L249.154 14.7186L255.082 14.7117C255.527 15.3353 255.504 15.9709 256.737 16.8331C259.59 18.828 263.521 16.7314 263.514 13.2732C263.507 9.26686 258.402 7.30745 255.785 10.624C255.428 11.0764 255.387 11.4068 255.082 11.8249C252.754 11.943 250.092 11.8427 247.73 11.8332C245.59 11.825 242.383 12.0246 240.4 11.7719C240.388 10.7195 240.399 9.66848 240.399 8.61611C240.396 5.36453 239.854 6.06361 233.212 6.06243C224.514 6.06007 226.241 5.14486 225.98 11.7945Z" fill="#E64741"/>
<path fill-rule="evenodd" clip-rule="evenodd" d="M234.537 52.5789C233.935 54.2041 231.33 53.5523 231.826 51.6649C232.047 50.8239 232.678 50.6654 233.68 50.78C234.364 50.8568 234.821 51.8052 234.537 52.5789ZM241.169 58.0189L225.237 58.0322C225.22 56.2925 223.75 51.3141 223.251 49.3133C222.899 47.9019 222.548 46.5057 222.192 45.0742C221.755 43.3156 221.488 43.8965 223.184 41.3335L229.554 31.5944C229.935 31.0239 230.255 30.5207 230.617 29.9561L231.742 28.3427L231.761 47.8286C231.665 48.2444 230.641 48.1712 229.665 49.5873C227.622 52.5436 229.793 56.3465 233.117 56.4031C236.639 56.4622 238.678 52.5375 236.815 49.717C236.184 48.7627 235.811 48.5595 234.652 47.9749L234.635 28.3062C235.034 28.7291 235.382 29.3701 235.711 29.8661C238.173 33.5842 240.733 37.6838 243.173 41.3039C243.712 42.1035 244.664 43.2637 244.529 43.8673C243.886 46.7586 241.17 55.9897 241.169 58.0189ZM222.45 58.0142C221.318 58.1146 218.697 57.4935 218.796 59.5557C218.881 61.312 221.139 60.9128 222.695 60.9116H243.635C245.245 60.9152 247.378 61.3274 247.585 59.6313C247.839 57.5491 245.058 58.0651 243.955 58.0226C243.95 57.3895 246.826 46.6237 247.302 44.6064C247.619 43.2623 247.868 43.1385 247.105 42.0283C246.172 40.67 245.308 39.2856 244.413 37.9202C242.617 35.1824 240.876 32.4824 239.082 29.7517C238.176 28.3745 237.315 27.0437 236.399 25.6381C235.946 24.9425 235.523 24.2963 235.072 23.6136C234.636 22.951 234.275 21.9909 233.212 21.9873C232.157 21.9826 231.833 22.8516 231.376 23.5449L227.364 29.682C224.936 33.4439 221.803 38.368 219.344 41.9609C218.579 43.0782 218.726 43.0535 219.071 44.4685C219.421 45.9023 222.426 57.4757 222.45 58.0142Z" fill="black"/>
<path fill-rule="evenodd" clip-rule="evenodd" d="M32.4325 50.8032C31.8313 53.3756 29.4373 55.7153 26.1479 55.0397C23.6534 54.5271 21.2912 51.9714 21.9562 48.8119C22.5231 46.1213 24.9254 43.974 28.2006 44.5445C30.7577 44.9897 33.1541 47.7169 32.4325 50.8032ZM43.3519 15.7917C43.7937 16.0019 45.0396 18.7349 45.2781 19.3207C48.1872 26.4298 46.5431 34.9964 41.4785 40.3905C40.5762 41.3519 39.7235 42.154 38.5507 43.0256C37.8739 43.5288 35.8577 44.8917 35.0025 45.076C34.8147 44.933 34.2668 44.1216 34.0613 43.8759C31.4582 40.7873 26.9356 39.8283 23.299 41.6C16.8655 44.7323 16.2928 53.6295 22.379 57.4764C27.4412 60.676 33.9986 58.0445 35.8198 52.5866C36.3218 51.0842 36.1825 50.3638 36.2309 48.656C41.8152 46.3481 46.8786 41.0696 49.0164 34.9715C50.9581 29.4345 50.9464 23.7855 48.8263 18.1823C48.5039 17.3307 48.2157 16.7176 47.8129 15.9144C47.4869 15.2648 46.7818 14.2786 46.6306 13.779C47.1373 13.7979 52.0411 15.0771 52.9258 15.3027C56.1514 16.1271 56.5992 12.5873 54.4142 11.8267C53.552 11.5267 49.346 10.5831 48.1082 10.2689C47.0664 10.0043 46.0141 9.75858 44.9559 9.48457C44.024 9.24362 42.6054 8.69314 41.7007 9.22228C40.7534 9.77622 40.7582 10.7649 40.4511 11.9153C40.1617 13.0031 39.9421 13.9409 39.6716 15.0724C39.1755 17.15 38.5211 19.3587 38.0806 21.4599C37.8113 22.7425 38.4219 23.7889 39.5156 23.9342C41.794 24.2365 41.8294 21.6605 42.5286 18.9959C42.6892 18.3841 43.15 16.1638 43.3519 15.7917Z" fill="#E64741"/>
<path fill-rule="evenodd" clip-rule="evenodd" d="M5.96491 35.9299C4.88892 37.6933 0.431361 39.9538 2.58215 42.0574C3.0605 42.5251 3.84954 42.7188 4.56765 42.4495C5.11096 42.2476 5.67902 41.5459 6.01681 41.2011C6.31091 40.9011 8.38148 38.7467 8.70983 38.6227C9.62991 39.3538 11.9757 42.1307 12.7611 42.4378C13.5359 42.7425 14.3259 42.5204 14.8043 42.0255C16.8818 39.8771 12.3582 37.6366 11.3874 35.9299C11.7004 35.265 14.8491 32.6713 15.1893 31.8539C15.5141 31.0744 15.2579 30.2996 14.8126 29.826C14.3897 29.376 13.6386 29.0653 12.8047 29.3771C11.848 29.735 9.22472 33.0504 8.61409 33.2145C8.00818 32.6358 5.21249 29.6735 4.668 29.4184C3.88021 29.0511 2.9827 29.3664 2.56577 29.7845C0.938212 31.4239 3.19408 33.0704 4.65393 34.516L5.66133 35.5248C5.93771 35.7965 5.83026 35.624 5.96491 35.9299Z" fill="#060606"/>
<path fill-rule="evenodd" clip-rule="evenodd" d="M61.3942 43.6057C62.3061 42.0029 66.9313 39.6513 64.8077 37.5029C64.3967 37.086 63.5697 36.7587 62.7666 37.1119C61.9375 37.4768 59.4608 40.4296 58.7049 40.9327C58.3258 40.7485 56.4218 38.7276 56.0214 38.3248C55.7367 38.039 55.0553 37.2795 54.5817 37.0858C53.814 36.7716 53.026 37.0799 52.5985 37.4992C50.5256 39.5307 54.5532 41.6651 56.0036 43.6057C55.7509 44.2116 52.3977 47.0083 52.1343 47.7748C51.8414 48.6311 52.2028 49.393 52.6197 49.791C53.0662 50.215 53.8636 50.4748 54.6112 50.1582C55.4734 49.7933 57.962 46.7047 58.7049 46.3397L61.4438 49.0233C62.1017 49.6823 63.4837 51.1847 64.8183 49.7202C66.1825 48.2237 64.7591 47.0768 63.9784 46.2973C63.6701 45.989 61.5183 43.9175 61.3942 43.6057Z" fill="#060606"/>
<path fill-rule="evenodd" clip-rule="evenodd" d="M23.7818 20.6727C23.5078 21.2845 20.3165 23.9986 19.9988 24.6718C19.3067 26.1329 20.6649 27.7698 22.302 27.2537C22.8169 27.0919 23.4052 26.4045 23.7737 26.043C24.2533 25.573 26.0934 23.6324 26.4619 23.4045C26.8765 23.6182 28.6659 25.5258 29.1182 25.9817C29.4513 26.3171 30.0099 26.9762 30.4989 27.1923C31.3197 27.5537 32.169 27.2408 32.593 26.8038C33.0182 26.3656 33.2804 25.5884 32.9875 24.8077C32.7678 24.2207 32.0625 23.6691 31.7448 23.3537C31.309 22.9226 29.3814 21.0825 29.1653 20.6727C30.018 19.1325 34.7519 16.7194 32.5704 14.5651C30.4137 12.4356 28.0363 17.1682 26.4619 17.9926C24.4564 16.7076 22.5263 12.4911 20.3637 14.5746C18.2696 16.5907 22.5428 18.8632 23.7818 20.6727Z" fill="#E64741"/>
</svg>
